<svg width="128" height="128" viewBox="0 0 128 128" xmlns="http://www.w3.org/2000/svg">
  <!-- Browser Window Frame -->
  <rect x="8" y="8" width="112" height="112" rx="12" fill="#2d3748" stroke="#4a5568" stroke-width="2"/>
  
  <!-- Title Bar -->
  <rect x="8" y="8" width="112" height="24" rx="12" fill="#4a5568"/>
  <rect x="8" y="20" width="112" height="12" fill="#4a5568"/>
  
  <!-- Window Controls -->
  <circle cx="20" cy="20" r="4" fill="#f56565"/>
  <circle cx="32" cy="20" r="4" fill="#ed8936"/>
  <circle cx="44" cy="20" r="4" fill="#48bb78"/>
  
  <!-- Address Bar -->
  <rect x="16" y="40" width="96" height="12" rx="6" fill="#1a202c" stroke="#2d3748" stroke-width="1"/>
  <rect x="20" y="43" width="88" height="6" rx="3" fill="#2d3748"/>
  
  <!-- Shield Icon (Privacy Symbol) -->
  <g transform="translate(64, 70)">
    <path d="M0,-12 L8,-8 L8,8 C8,12 4,16 0,16 C-4,16 -8,12 -8,8 L-8,-8 Z" fill="#48bb78"/>
    <path d="M0,-8 L-4,-6 L-4,6 C-4,8 -2,10 0,10 C2,10 4,8 4,6 L4,-6 Z" fill="#2d3748"/>
    <circle cx="0" cy="2" r="2" fill="#48bb78"/>
  </g>
  
  <!-- Content Area -->
  <rect x="16" y="60" width="96" height="52" rx="4" fill="#1a202c"/>
  <rect x="20" y="64" width="88" height="8" rx="2" fill="#2d3748"/>
  <rect x="20" y="76" width="60" height="4" rx="2" fill="#4a5568"/>
  <rect x="20" y="84" width="80" height="4" rx="2" fill="#4a5568"/>
  <rect x="20" y="92" width="40" height="4" rx="2" fill="#4a5568"/>
</svg>